<?xml version="1.0" encoding="UTF-8"?>
<svg id="a" data-name="Laag 1" xmlns="http://www.w3.org/2000/svg" width="500" height="462" viewBox="0 0 500 462">
  <path d="M489.168,199.852c-1.477-6.421-3.792-12.612-6.923-18.518-.206-5.133-.901-10.319-2.091-15.508-3.443-15.004-10.192-28.152-20.02-39.034-11.651-12.927-27.253-21.64-45.099-25.194-13.599-2.712-27.999-2.243-44.014,1.431-1.083.248-2.153.53-3.222.811-.951-12.219-5.051-24.126-12.02-34.748-7.383-11.239-17.695-20.268-30.648-26.835l-2.153-1.04c-12.214-5.608-25.73-8.507-40.173-8.616l-.468-.002c-2.219,0-4.436.079-6.646.224-13.145-11.4-30.39-17.762-49.097-17.762l-.731.005c-12.707.151-24.269,2.757-34.428,7.747-9.245-5.144-21.523-9.388-37.225-9.815l-1.678-.023c-12.714,0-24.547,2.663-35.187,7.924-.252.125-.497.258-.747.385-.99-.423-1.979-.847-2.996-1.23l-.203-.076c-8.762-3.262-18.102-4.917-27.76-4.917C45.247,15.061,14.29,43.135,10.353,83.396c-.373,3.859-.704,9.172-1.039,16.701-.322,7.18-.486,15.096-.486,23.527,0,31.843,2.732,51.149,9.428,66.638l.822,1.899.947,1.84c12.199,23.707,36.533,37.861,65.094,37.861h1.163l.706-.016c5.754-.132,11.275-.775,16.541-1.923,4.633.891,9.688,1.417,15.166,1.417h.327c.82,0,1.607-.038,2.409-.059.952,5.052,2.056,10.415,3.295,16.011-6.515-1.126-13.23-1.693-20.112-1.693-17.428,0-33.521,4.298-47.854,12.787-14.841,8.798-26.839,21.795-34.683,37.558-6.888,13.825-10.38,29.421-10.38,46.354l.204,6.759c.625,12.913,2.832,24.994,6.552,35.886,6.049,17.735,17.193,32.729,32.217,43.354,14.843,10.502,32.941,15.944,53.79,16.173l.676.004c8.261,0,16.735-1.025,25.88-3.129,2.703-.621,5.338-1.375,7.932-2.207,9.893,3.454,20.473,5.203,31.579,5.203,10.077,0,19.729-1.439,28.844-4.291,7.987,2.761,16.648,4.227,25.726,4.227h1.476l.694-.016c8.702-.196,16.865-1.568,24.43-4.088,8.978,2.767,18.493,4.168,28.427,4.168,10.061,0,19.699-1.433,28.794-4.275,7.923,2.814,16.405,4.275,25.188,4.275,21.053,0,38.744-6.151,52.553-18.256,5.734-5.02,13.907-14.008,19.197-27.706,2.763-1.452,5.442-3.063,8.023-4.826,9.577-6.523,17.385-14.956,23.223-25.092,6.5-11.3,9.935-24.45,9.935-38.029l-.018-1.479c-.398-16.598-4.58-29.737-9.96-39.877,4.144-1.93,8.219-4.105,12.201-6.538,14.672-8.966,25.958-20.495,33.543-34.268l1.26-2.287,1.061-2.386c6.067-13.632,7.472-28.727,4.043-43.745ZM421.609,194.002l-6.468,1.653c.012-3.327-.059-6.572-.216-9.741,2.584,2.279,4.883,4.972,6.683,8.089ZM421.557,195.35c-.382,2.6-1.359,6.498-3.822,10.925l-2.83-1.574c.124-2.671.213-5.301.237-7.866l6.415-1.485ZM414.801,207.004l1.862,1.122c-.587.975-1.187,1.885-1.789,2.733l-.321-.177c.088-1.232.179-2.469.248-3.678ZM374.538,342.073c.051.071.108.142.159.213l-.151.003c-.002-.072-.005-.144-.008-.216ZM155.175,34.791c4.999.183,10.254,1.526,15.294,3.792-.29.32-.577.642-.861.967-4.735-.898-9.593-1.39-14.553-1.465l.12-3.295ZM151.476,34.779c.486-.019.969-.029,1.448-.029v3.33l-.244.004c-.607.01-1.211.025-1.809.044l.606-3.349ZM142.036,38.767c-.254.029-.502.067-.754.098-.567-.632-1.167-1.234-1.757-1.845.834-.275,1.672-.528,2.511-.755v2.502ZM76.929,134.892c.004.505.009,1.012.014,1.508-.161-.222-.328-.439-.486-.663.152-.282.313-.563.471-.845ZM374.592,346.683c.001-.112.008-.224.009-.336v-.277s.388-.007.388-.007c-.129.208-.265.413-.397.619ZM375.49,345.234l-.894.031c-.003-.73-.009-1.458-.026-2.184h.682c.272.397.536.795.792,1.193-.181.322-.366.642-.554.96Z" fill="#9b8dc0"/>
  <g>
    <path d="M85.576,170.24h-.456c-5.346,0-8.78-1.478-10.301-4.434-2.913-6.736-4.368-20.797-4.368-42.182,0-7.519.14-14.44.424-20.765.282-6.323.554-10.833.815-13.528.824-8.432,5.476-12.648,13.952-12.648,2.304,0,4.389.348,6.258,1.043,4.043,1.521,6.107,5.15,6.195,10.887l.456,30.773c.087,1.478.478,2.217,1.173,2.217,1.216,0,2.933-1.435,5.15-4.303,2.042-2.695,3.195-6.064,3.455-10.106.173-1.956.522-3.847,1.043-5.671.564-1.478,1.716-2.597,3.455-3.358,1.738-.761,3.607-1.141,5.607-1.141,2.216,0,4.247.447,6.095,1.336,1.847.892,2.923,2.249,3.228,4.075.433,2.956.652,5.867.652,8.737,0,2.477-.284,4.847-.849,7.106-.564,2.26-1.619,4.326-3.162,6.194-1.543,1.869-3.706,3.478-6.487,4.825-2.086.826-3.129,1.608-3.129,2.347,0,.609.869,1.261,2.608,1.956,4.433,1.914,8.019,5.043,10.757,9.389s4.108,8.932,4.108,13.755c0,5-1.043,8.41-3.13,10.236-2.086,1.826-5.455,2.738-10.105,2.738h-.326c-6.65,0-10.258-2.673-10.822-8.019l-.717-9.779c-.261-2.999-.804-5.216-1.63-6.651-.827-1.433-1.695-2.151-2.608-2.151-.957,0-1.826.771-2.608,2.314s-1.173,3.792-1.173,6.747v2.673c0,3.087-.326,5.77-.977,8.052-.652,2.282-1.956,4.054-3.912,5.314-1.957,1.261-4.848,1.934-8.672,2.022ZM76.253,132.687c.608,0,1.042-1.065,1.303-3.195.217-3.259.413-6.692.587-10.3.217-5.173.51-10.051.88-14.638.368-4.584.945-8.159,1.727-10.724.173-.564.261-1.087.261-1.566,0-.954-.25-1.716-.75-2.281s-1.076-.849-1.727-.849c-.566,0-1.108.261-1.631.782-.521.522-.912,1.326-1.173,2.413-1.261,6.433-1.891,13.495-1.891,21.189,0,4.651.206,9.009.62,13.072.413,4.064,1.011,6.096,1.793,6.096ZM81.599,86.593c.694,0,1.585-.369,2.673-1.108,1.565-1.305,2.347-2.39,2.347-3.26,0-.564-.24-.999-.717-1.303-.479-.303-1.043-.456-1.696-.456-1.13,0-2.174.499-3.129,1.5-.696,1-1.042,1.934-1.042,2.803,0,.521.13.957.391,1.303.26.349.651.522,1.173.522Z" fill="#fff"/>
    <path d="M152.924,96.372c-4.738-.173-8.324-1.368-10.757-3.585-2.435-2.217-3.652-4.781-3.652-7.693,0-1.782.51-3.466,1.532-5.053,1.021-1.586,2.564-2.891,4.629-3.913,2.064-1.021,4.683-1.532,7.857-1.532,4.824.131,8.431,1.25,10.822,3.358,2.389,2.109,3.585,4.575,3.585,7.399,0,1.826-.533,3.587-1.597,5.281-1.065,1.696-2.63,3.076-4.694,4.14-2.065,1.065-4.641,1.597-7.726,1.597ZM152.793,169.718c-4.521,0-7.769-.705-9.746-2.118-1.979-1.412-3.141-4.052-3.488-7.922-.696-6.823-1.043-17.798-1.043-32.925,0-7.127.108-13.234.326-18.319.087-3.043,1.271-5.238,3.553-6.586,2.282-1.347,6.053-2.063,11.312-2.151,3.259,0,6.171.586,8.735,1.76s3.933,2.783,4.108,4.825c.217,7.52.326,15.626.326,24.318,0,10.519-.261,19.885-.782,28.099-.304,3.956-1.532,6.781-3.684,8.477-2.151,1.695-5.357,2.542-9.616,2.542ZM142.036,86.984c.696,0,1.956-1.043,3.782-3.129,1.477-1.957,2.217-3.347,2.217-4.173,0-.696-.326-1.043-.978-1.043-.609,0-1.282.218-2.021.652-1.478.869-2.565,2.282-3.259,4.238-.304.87-.457,1.63-.457,2.282,0,.696.238,1.087.717,1.173ZM144.253,135.946c.564,0,.978-.694,1.238-2.086.218-2.565.348-5.172.391-7.824.043-3.216.238-6.399.587-9.55.347-3.151,1.173-6.162,2.477-9.03.131-.303.196-.608.196-.912,0-.522-.218-.946-.652-1.272s-.957-.489-1.565-.489c-.826,0-1.652.414-2.477,1.238-1.739,2.305-2.608,7.15-2.608,14.539,0,2.783.119,5.402.359,7.857.238,2.455.51,4.358.815,5.704.391,1.218.804,1.826,1.238,1.826Z" fill="#fff"/>
    <path d="M226.921,169.718c-2.086,0-3.749-.184-4.988-.554s-2.271-.75-3.097-1.141c-1.391-.564-2.5-.847-3.325-.847-1.391.087-2.933.391-4.629.912-2.347.826-5.585,1.368-9.714,1.63-4.607,0-8.596-.901-11.963-2.706-3.369-1.803-6.139-4.227-8.313-7.269-2.174-3.041-3.782-6.475-4.824-10.301-1.043-3.824-1.565-7.78-1.565-11.866,0-4.215.543-8.366,1.63-12.452,1.086-4.085,2.683-7.758,4.791-11.019,2.109-3.259,4.695-5.867,7.759-7.823s6.552-2.934,10.464-2.934c2.042,0,4.063.24,6.064.717,1.651.391,3.106.587,4.368.587,1.781,0,2.967-.577,3.553-1.728.587-1.151.901-3.162.946-6.03,0-1.435-.045-2.846-.131-4.239-.087-1.39-.13-2.715-.13-3.977,0-2.434.294-4.531.88-6.291.587-1.761,1.803-3.14,3.652-4.14,1.846-.999,4.596-1.521,8.247-1.565,4.607,0,7.889,1.282,9.845,3.847,4.128,5.346,6.194,20.058,6.194,44.138,0,7.911-.261,15.375-.782,22.395-.521,7.02-1.261,12.377-2.217,16.071-.651,2.651-1.923,4.412-3.814,5.281-1.891.87-4.856,1.303-8.899,1.303ZM181.675,145.204c.261,0,.456-.999.587-2.998.391-3.999.934-7.52,1.63-10.562,1.781-7.866,5.52-13.256,11.214-16.169,1.26-.782,1.891-1.608,1.891-2.478,0-.433-.185-.803-.554-1.107-.371-.304-.946-.457-1.728-.457-3.173.219-5.911,1.62-8.214,4.205-2.305,2.586-4.075,5.76-5.314,9.519-1.238,3.76-1.858,7.357-1.858,10.79,0,2.521.326,4.694.978,6.52.651,1.826,1.108,2.738,1.368,2.738ZM209.253,141.292c1.347-.087,2.347-.956,2.999-2.608.652-1.651.977-3.52.977-5.606,0-2.26-.357-4.369-1.075-6.325s-1.75-2.933-3.097-2.933h-.261c-3.52.521-6.184,1.727-7.987,3.618-1.804,1.891-2.706,3.879-2.706,5.966,0,2.042.869,3.868,2.608,5.476,1.738,1.608,4.346,2.412,7.823,2.412h.717ZM204.168,113.519c1.086,0,1.891-.206,2.412-.62.522-.413.782-.857.782-1.336,0-.609-.315-1.173-.945-1.696-.631-.521-1.532-.782-2.706-.782-1.043.045-1.816.24-2.314.587-.501.348-.75.782-.75,1.303,0,.609.314,1.186.945,1.728.629.544,1.489.815,2.576.815Z" fill="#fff"/>
    <path d="M278.426,170.174c-6.824-.13-12.225-.815-16.201-2.053-3.978-1.238-6.792-3.009-8.443-5.314-1.652-2.304-2.478-5.128-2.478-8.475,0-2.086.294-4.108.88-6.064.587-1.956,1.413-3.563,2.478-4.824,1.064-1.26,2.336-1.891,3.814-1.891,1.565.175,3.074.619,4.531,1.336,1.455.717,2.89,1.544,4.303,2.478,1.412.935,2.857,1.76,4.335,2.477,1.477.717,3.216,1.099,5.216,1.141,2.434,0,4.303-.413,5.606-1.238,1.305-.826,1.956-1.761,1.956-2.803,0-1-.629-1.934-1.89-2.804-1.261-.869-3.195-1.433-5.804-1.695-6.476-.434-12.072-2.032-16.787-4.793-4.717-2.759-7.509-7.529-8.378-14.31-.088-.869-.13-1.738-.13-2.608,0-4.042.889-7.594,2.672-10.659s4.162-5.617,7.139-7.661c2.976-2.042,6.291-3.587,9.943-4.629,3.65-1.043,7.367-1.565,11.149-1.565,5.694.043,10.67,1.042,14.93,2.998,3.259,1.652,5.595,3.554,7.008,5.705,1.412,2.152,2.119,4.293,2.119,6.422,0,2.868-1.022,5.402-3.064,7.596-2.044,2.195-4.522,3.292-7.433,3.292-1.303,0-2.662-.292-4.074-.88-1.413-.587-2.738-1.076-3.978-1.467-1.238-.391-2.444-.586-3.618-.586-2.608.087-4.575.521-5.9,1.303-1.326.782-1.989,1.674-1.989,2.673,0,.912.597,1.761,1.793,2.543,1.195.782,3.009,1.238,5.444,1.368,8.78.566,15.298,2.761,19.559,6.585,4.259,3.826,6.432,8.324,6.52,13.495v1.043c0,7.781-2.706,13.702-8.117,17.766-5.411,4.066-13.115,6.096-23.112,6.096ZM257.629,127.536c.217,0,.325-.629.325-1.891l-.13-3.455c0-7.78,3.89-13.56,11.671-17.342,1.086-.651,1.63-1.216,1.63-1.695,0-.303-.185-.564-.555-.782s-.836-.326-1.401-.326c-.479,0-.978.088-1.5.261-3.565,1.26-6.466,3.477-8.704,6.65s-3.358,6.628-3.358,10.366c0,1.217.131,2.456.391,3.717.261,1.26.555,2.325.881,3.194.326.87.575,1.303.75,1.303ZM278.621,102.306c2.738-.043,4.108-.587,4.108-1.631,0-.433-.294-.847-.88-1.238-.587-.391-1.337-.586-2.249-.586-.827,0-1.642.141-2.446.424s-1.466.609-1.988.977c-.521.369-.782.685-.782.946,0,.651,1.412,1.022,4.238,1.108Z" fill="#fff"/>
  </g>
  <g>
    <path d="M188.588,285.243c-.323-.001-.645-.003-.968-.005-6.366-.049-10.662-1.662-12.799-4.706-4.009-6.827-6.615-21.142-7.147-42.806-.186-7.587-.12-14.543.151-20.873.273-6.332.558-10.842.802-13.542,1.002-8.312,6.045-12.286,14.971-12.287,2.41.044,4.612.417,6.622,1.125,4.477,1.548,6.878,5.176,7.24,10.979.766,13.431,2.262,34.93,5.966,64.528.059.568.119,1.137.178,1.705.326,3.151.245,5.892-.268,8.225-.516,2.334-1.897,4.18-4.162,5.524-2.267,1.342-5.798,2.075-10.586,2.135ZM174.76,247.19c.715.022,1.179-1.036,1.389-3.177.113-3.281.203-6.736.279-10.366.067-5.205.26-10.108.566-14.713.306-4.602.882-8.179,1.696-10.735.181-.562.268-1.083.259-1.565-.014-.96-.314-1.733-.89-2.317-.579-.583-1.223-.887-1.936-.909-.618-.02-1.211.211-1.777.694-.568.482-.994,1.265-1.272,2.346-1.294,6.374-1.91,13.411-1.742,21.121.103,4.73.465,9.178,1.09,13.337.622,4.161,1.418,6.258,2.337,6.285ZM179.508,200.947c.709.018,1.671-.35,2.883-1.112,1.675-1.276,2.493-2.334,2.477-3.163-.009-.566-.274-1.007-.793-1.321-.516-.314-1.127-.48-1.828-.494-1.215-.025-2.329.451-3.352,1.427-.743.984-1.114,1.911-1.106,2.784.009,1.047.58,1.675,1.719,1.878Z" fill="#fff"/>
    <path d="M254.988,282.036c-6.446.678-12.341.198-17.583-1.383-5.243-1.581-9.781-4.006-13.573-7.227-3.79-3.22-6.785-7.04-8.977-11.425-2.195-4.385-3.555-9.116-4.114-14.177-.721-7.158.113-13.709,2.336-19.674,2.228-5.964,5.864-10.788,10.822-14.553,4.964-3.769,11.261-5.944,18.962-6.679,7.699-.736,14.324.202,20.076,2.933,5.748,2.729,10.512,6.723,14.348,12.062,3.83,5.338,6.572,11.484,8.15,18.488,1.068,4.963,1.337,9.754.747,14.373-.592,4.62-2.088,8.858-4.533,12.689-2.447,3.83-5.877,7.062-10.316,9.644-4.435,2.582-9.898,4.251-16.347,4.928ZM217.356,254.666c.404-.017.77-.294,1.088-.836.32-.54.44-1.138.365-1.79-.064-.326-.128-.652-.192-.979-.103-.477-.203-1.107-.293-1.892-.331-2.919-.108-6.059.651-9.422.754-3.363,2.133-6.571,4.104-9.633,1.969-3.065,4.646-5.707,8.004-7.961,1.146-.913,1.659-1.871,1.541-2.87-.088-.737-.465-1.388-1.127-1.953-.662-.563-1.42-.817-2.275-.759-.569.039-1.144.253-1.726.64-4.379,3.347-7.741,7.678-10.028,13.053-2.286,5.377-3.168,11.127-2.51,17.276.517,4.797,1.329,7.173,2.398,7.126ZM237.493,217.322c1.61-.134,2.936-.527,3.973-1.17,1.038-.642,1.512-1.29,1.425-1.941-.076-.562-.458-1.029-1.148-1.405-.69-.373-1.55-.513-2.582-.422-1.501.131-2.821.59-3.964,1.383-1.143.791-1.682,1.487-1.612,2.096.117.998,1.421,1.491,3.908,1.46ZM250.865,259.741c2.279-.231,4.034-1.216,5.261-2.936,1.224-1.723,1.969-3.846,2.245-6.367.274-2.519.169-5.116-.305-7.79-.481-2.717-1.305-5.293-2.459-7.737-1.152-2.439-2.57-4.379-4.265-5.822-1.693-1.443-3.584-2.058-5.696-1.852-2.115.207-3.779,1.168-5.009,2.899-1.226,1.731-2.042,3.882-2.424,6.457-.385,2.576-.39,5.231.006,7.963.387,2.688,1.14,5.238,2.273,7.647,1.127,2.407,2.571,4.326,4.32,5.749,1.746,1.423,3.774,2.023,6.052,1.791Z" fill="#fff"/>
    <path d="M338.919,267.003c-.472.12-.945.24-1.418.358-8.428,2.116-15.237,1.362-20.185-2.088-6.3-4.951-12.864-12.309-19.416-22.103-6.55-9.794-11.505-18.708-15.125-26.634-.629-1.397-1.064-2.717-1.318-3.959-.658-3.25-.085-5.998,1.669-8.248,1.753-2.255,4.758-3.762,9.016-4.587,2.017-.39,3.834-.621,5.455-.687,1.624-.066,3.174.377,4.668,1.328,1.493.949,3.025,2.702,4.611,5.252,3.184,5.326,6.032,10.247,8.499,14.784,2.834,5.348,6.306,10.927,10.484,16.701,1.766,2.495,3.167,3.611,4.168,3.362.81-.203,1.184-1.718,1.124-4.542-.191-4.55-.458-9.104-.797-13.662-.641-7.183-.92-14.525-.88-22.025.04-2.628.647-4.967,1.807-7.027,1.159-2.059,2.966-3.431,5.42-4.142,1.813-.523,3.65-.952,5.516-1.288,1.869-.334,3.714-.298,5.547.111,1.832.408,3.348,1.293,4.555,2.667,1.204,1.377,2.103,2.905,2.686,4.593.157.59.315,1.18.473,1.77,1.647,7.938,2.487,17.363,2.347,28.287-.135,10.924-1.098,20.418-2.93,28.463-.935,3.458-2.903,6.308-5.927,8.522-3.02,2.214-6.381,3.817-10.049,4.794ZM300.035,237.485c.623-.122.847-.724.677-1.803-.129-.509-.41-1.121-.836-1.839-3.991-6.207-6.428-11.64-7.472-16.238-.579-2.555-.508-4.721.191-6.497.426-.878.56-1.66.407-2.341-.163-.725-.591-1.262-1.285-1.62-.694-.355-1.405-.465-2.131-.33-1.364.254-2.288,1.242-2.779,2.969-.488,1.729-.485,3.787.029,6.176,1.179,5.461,4.507,12.085,10.279,19.749,1.224,1.325,2.202,1.914,2.92,1.774ZM297.142,206.62c2.223-.448,3.141-1.465,2.773-3.036-.141-.593-.481-1.091-1.019-1.491-.541-.4-1.279-.504-2.224-.313-.63.127-1.319.398-2.071.814-1.059.741-1.498,1.515-1.32,2.323.134.596.547,1.083,1.248,1.456.699.374,1.57.457,2.613.247Z" fill="#fff"/>
    <path d="M415.24,241.951c-16.572,6.742-29.93,4.377-38.79-6.305-3.621-4.264-6.567-9.435-8.866-15.48-2.035-5.351-3.251-10.887-3.725-16.592-.47-5.706.277-10.75,2.16-15.146,1.456-3.092,3.951-6.08,7.446-9.006,3.493-2.928,7.471-5.28,11.965-7.095,7.024-2.84,12.953-4.324,17.955-4.343,4.996-.022,9.185,1.113,12.611,3.47,3.425,2.352,6.235,5.65,8.403,9.923,2.012,3.965,2.651,7.699,1.839,11.22-.812,3.519-3.023,6.167-6.625,7.89-1.21.522-2.422,1.04-3.637,1.554-2.269.98-4.546,1.945-6.833,2.896-2.861,1.221-5.681,2.485-8.458,3.801-2.958,1.483-4.975,2.955-6.034,4.445-1.059,1.491-1.359,2.775-.887,3.856.542,1.241,1.941,2.05,4.206,2.405,2.264.356,4.995-.104,8.161-1.398,2.405-.986,4.621-2.147,6.642-3.481,2.021-1.333,3.464-2.627,4.345-3.872,1.989-2.774,4.084-4.671,6.333-5.694,2.464-1.121,4.918-1.409,7.4-.866,2.483.544,4.725,1.563,6.733,3.066,2.008,1.505,3.506,3.131,4.476,4.894.925,1.687,1.232,3.29.898,4.81-1.525,4.813-4.923,9.597-10.281,14.242-5.357,4.644-11.201,8.258-17.438,10.804ZM375.433,224.288c.455-.157.565-.725.329-1.708-2.78-6.987-3.809-13.24-3.249-18.731.564-5.493,2.944-10.605,7.02-15.404.919-1.233,1.237-2.194.96-2.883-.242-.606-.751-.993-1.52-1.166-.769-.173-1.512-.127-2.226.142-.296.11-.572.263-.837.452-4.236,3.719-6.609,8.672-7.049,14.942-.436,6.267.618,12.895,3.334,19.857.68,1.615,1.257,2.814,1.72,3.6.464.788.973,1.087,1.519.899ZM383.529,182.637c.627-.244,1.308-.654,2.042-1.225,1.058-.842,1.751-1.613,2.089-2.313.339-.699.413-1.27.227-1.713-.2-.481-.621-.791-1.256-.936-.635-.142-1.325-.064-2.068.231-1.235.492-2.277,1.384-3.125,2.671-.851,1.288-1.16,2.234-.918,2.84.324.809,1.328.961,3.008.443ZM395.414,198.096c.43-.174,1.186-.526,2.266-1.062,1.872-.908,3.552-1.678,5.042-2.306.541-.205,1.082-.41,1.622-.617.894-.379,1.166-.948.819-1.699-1.229-1.893-2.655-3.175-4.287-3.858-1.634-.68-3.198-.71-4.716-.083-1.136.47-2.049,1.372-2.74,2.71-.691,1.338-.951,3.145-.772,5.419.028.412.094.739.197.979.363.84,1.222,1.017,2.57.519Z" fill="#fff"/>
  </g>
  <g>
    <path d="M105.136,382.851c-8.129-.089-14.421-1.707-18.874-4.858-4.456-3.151-7.619-7.467-9.486-12.943-1.87-5.476-2.978-11.8-3.324-18.97l-.132-3.782c0-7.347,1.305-13.636,3.914-18.874,2.607-5.238,6.258-9.248,10.952-12.031,4.694-2.78,10.17-4.172,16.429-4.172,7.347,0,13.952,1.261,19.82,3.782,2.434,1.131,4.249,2.869,5.445,5.216,1.194,2.347,1.791,4.824,1.791,7.431,0,3.435-.9,6.357-2.706,8.769-1.803,2.412-4.487,3.707-8.052,3.88-1.216,0-2.412-.142-3.584-.424-1.175-.282-2.347-.609-3.522-.977-1.172-.371-2.347-.696-3.519-.98-1.175-.282-2.347-.424-3.522-.424s-2.347.195-3.522.587c-2.78,1.042-4.79,2.619-6.03,4.728s-1.858,4.314-1.858,6.617c0,2.737.717,5.216,2.152,7.431,1.435,2.217,3.259,3.327,5.476,3.327,1.695,0,3.346-.238,4.956-.717,1.606-.479,3.182-1.021,4.725-1.63s3.12-1.151,4.728-1.63,3.259-.717,4.954-.717c.696,0,1.435.065,2.217.195,3.216.652,5.628,2.39,7.238,5.216,1.606,2.826,2.412,5.693,2.412,8.605-.176,4.391-1.914,7.857-5.216,10.399s-7.226,4.335-11.768,5.377c-4.542,1.045-8.572,1.567-12.093,1.567ZM78.34,350.577c.433,0,.717-.498.847-1.497,0-7.433,1.283-13.465,3.847-18.094,2.564-4.629,6.673-8.42,12.322-11.376,1.261-.826,1.892-1.608,1.892-2.347,0-.609-.327-1.141-.98-1.596-.65-.457-1.367-.686-2.15-.686-.306,0-.611.043-.915.13-5.39,1.957-9.443,5.662-12.158,11.116-2.718,5.457-4.075,11.898-4.075,19.332.043,1.738.152,3.011.327,3.813.173.806.52,1.206,1.042,1.206ZM103.376,315.957c1.565,0,2.879-.27,3.943-.814,1.066-.544,1.598-1.163,1.598-1.858,0-.522-.306-.999-.912-1.435-.609-.433-1.413-.652-2.412-.652-1.435,0-2.751.349-3.945,1.045-1.196.696-1.793,1.346-1.793,1.955,0,1.001,1.175,1.586,3.522,1.76Z" fill="#fff"/>
    <path d="M170.527,382.719c-5.346,0-10.052-.977-14.115-2.932-4.063-1.957-7.476-4.631-10.235-8.021-2.761-3.389-4.848-7.301-6.258-11.735-1.413-4.434-2.142-9.171-2.186-14.214,0-7.127,1.228-13.615,3.685-19.462,2.455-5.844,6.116-10.495,10.986-13.952,4.867-3.454,10.909-5.183,18.123-5.183s13.256,1.728,18.126,5.183c4.867,3.457,8.54,8.107,11.017,13.952,2.477,5.847,3.717,12.334,3.717,19.462-.043,5.043-.773,9.78-2.183,14.214-1.413,4.434-3.5,8.345-6.261,11.735-2.759,3.389-6.181,6.064-10.266,8.021-4.087,1.955-8.803,2.932-14.149,2.932ZM142.754,352.859c.347,0,.684-.26,1.011-.782.325-.52.489-1.107.489-1.76l-.065-.977c-.043-.479-.065-1.11-.065-1.892,0-2.91.489-6.018,1.466-9.323.977-3.303,2.489-6.422,4.533-9.354,2.041-2.934,4.694-5.402,7.953-7.402,1.129-.823,1.695-1.738,1.695-2.737,0-.739-.272-1.413-.814-2.022-.544-.607-1.206-.912-1.988-.912-.522,0-1.066.173-1.632.522-4.302,3.043-7.703,7.183-10.201,12.418-2.501,5.24-3.75,10.921-3.75,17.05,0,4.783.457,7.171,1.37,7.171ZM164.399,317.067c1.478,0,2.727-.272,3.75-.816,1.021-.542,1.531-1.141,1.531-1.793,0-.563-.294-1.064-.881-1.5-.585-.433-1.358-.65-2.313-.65-1.391,0-2.653.347-3.782,1.042-1.131.696-1.695,1.348-1.695,1.957,0,.999,1.129,1.586,3.389,1.76ZM170.527,360.292c1.957,0,3.587-.782,4.891-2.347,1.302-1.565,2.27-3.575,2.901-6.03.628-2.455.946-5.031.946-7.727,0-2.737-.327-5.377-.98-7.922-.652-2.542-1.63-4.617-2.934-6.225-1.302-1.608-2.91-2.412-4.824-2.412s-3.519.804-4.824,2.412-2.282,3.673-2.934,6.194-.977,5.151-.977,7.888c0,2.696.325,5.281.977,7.758s1.62,4.499,2.901,6.064c1.283,1.565,2.903,2.347,4.858,2.347Z" fill="#fff"/>
    <path d="M225.879,382.654h-.782c-5.13,0-8.475-1.476-10.04-4.434-2.869-6.648-4.304-20.708-4.304-42.18,0-7.52.142-14.431.424-20.732.284-6.302.532-10.801.751-13.497.869-8.302,5.498-12.539,13.887-12.714,2.26,0,4.323.349,6.194,1.045,4.172,1.521,6.302,5.173,6.388,10.952.13,13.388.479,34.792,1.045,64.219v1.695c0,3.129-.318,5.847-.946,8.148-.631,2.306-1.923,4.109-3.88,5.414-1.955,1.302-4.867,1.998-8.735,2.085ZM216.556,345.165c.607,0,1.042-1.064,1.305-3.194.217-3.259.412-6.692.585-10.3.217-5.173.51-10.05.881-14.638.368-4.586.946-8.16,1.728-10.724.173-.566.26-1.086.26-1.565,0-.956-.26-1.716-.782-2.282s-1.107-.847-1.76-.847c-.566,0-1.11.25-1.63.749-.522.501-.915,1.295-1.175,2.381-1.218,6.388-1.825,13.408-1.825,21.057,0,4.694.205,9.096.619,13.203.412,4.107,1.011,6.16,1.793,6.16ZM221.902,299.072c.652,0,1.543-.39,2.672-1.172,1.565-1.305,2.347-2.369,2.347-3.194,0-.566-.238-.999-.717-1.305-.477-.303-1.042-.457-1.695-.457-1.131,0-2.174.501-3.129,1.5-.696,1.001-1.042,1.935-1.042,2.804,0,1.042.52,1.651,1.565,1.825Z" fill="#fff"/>
    <path d="M280.123,382.719c-5.346,0-10.052-.977-14.115-2.932-4.066-1.957-7.476-4.631-10.237-8.021-2.759-3.389-4.846-7.301-6.258-11.735s-2.14-9.171-2.183-14.214c0-7.127,1.228-13.615,3.683-19.462,2.455-5.844,6.119-10.495,10.986-13.952,4.867-3.454,10.909-5.183,18.126-5.183s13.256,1.728,18.123,5.183c4.867,3.457,8.54,8.107,11.02,13.952,2.477,5.847,3.714,12.334,3.714,19.462-.043,5.043-.77,9.78-2.183,14.214s-3.5,8.345-6.258,11.735c-2.761,3.389-6.184,6.064-10.269,8.021-4.085,1.955-8.8,2.932-14.147,2.932ZM252.35,352.859c.347,0,.684-.26,1.009-.782.327-.52.489-1.107.489-1.76l-.065-.977c-.043-.479-.065-1.11-.065-1.892,0-2.91.489-6.018,1.468-9.323.977-3.303,2.487-6.422,4.53-9.354,2.044-2.934,4.694-5.402,7.953-7.402,1.131-.823,1.697-1.738,1.697-2.737,0-.739-.272-1.413-.816-2.022-.544-.607-1.206-.912-1.988-.912-.522,0-1.066.173-1.63.522-4.304,3.043-7.705,7.183-10.204,12.418-2.499,5.24-3.748,10.921-3.748,17.05,0,4.783.455,7.171,1.37,7.171ZM273.995,317.067c1.476,0,2.727-.272,3.748-.816,1.021-.542,1.533-1.141,1.533-1.793,0-.563-.294-1.064-.881-1.5-.587-.433-1.36-.65-2.316-.65-1.391,0-2.65.347-3.782,1.042-1.129.696-1.695,1.348-1.695,1.957,0,.999,1.131,1.586,3.392,1.76ZM280.123,360.292c1.955,0,3.584-.782,4.889-2.347s2.27-3.575,2.901-6.03.946-5.031.946-7.727c0-2.737-.325-5.377-.977-7.922-.652-2.542-1.63-4.617-2.934-6.225s-2.913-2.412-4.824-2.412-3.522.804-4.826,2.412c-1.302,1.608-2.282,3.673-2.932,6.194-.652,2.52-.98,5.151-.98,7.888,0,2.696.327,5.281.98,7.758.65,2.477,1.618,4.499,2.901,6.064,1.281,1.565,2.901,2.347,4.858,2.347Z" fill="#fff"/>
    <path d="M334.105,382.719c-2.869,0-5.216-.672-7.041-2.02-3.348-2.52-5.26-6.911-5.736-13.169-.611-7.39-.915-19.06-.915-35.011l.065-10.3c.087-3.738.859-6.706,2.316-8.902,1.456-2.193,3.324-3.758,5.606-4.694,2.282-.934,4.663-1.401,7.139-1.401,2.999,0,5.779.51,8.345,1.533,2.564,1.021,4.345,2.27,5.346,3.748.347.609.542,1.695.587,3.259,0,1.088.217,1.63.652,1.63.433,0,.999-.412,1.695-1.237,4.564-5.043,9.104-7.563,13.624-7.563,5.912.087,10.618,1.945,14.115,5.575,3.5,3.628,5.337,9.051,5.51,16.265,0,2.869-.578,5.303-1.728,7.303-1.151,1.998-2.65,3.63-4.499,4.889-1.846,1.261-3.835,2.183-5.965,2.771s-4.15.881-6.064.881c-2.217,0-4.107-.337-5.671-1.011s-2.436-1.618-2.609-2.836c-.217-1.868-.77-3.281-1.661-4.239-.893-.956-1.858-1.435-2.901-1.435-1.305,0-2.523.763-3.652,2.282-1.131,1.524-1.695,3.892-1.695,7.108,0,5.779.152,12.755.455,20.927l.065,1.825c0,5.216-1.141,8.824-3.423,10.822-2.282,2-6.271,2.999-11.963,2.999ZM327.129,351.229c.347,0,.64-.205.881-.619.238-.412.359-1.033.359-1.858l-.065-1.89-.065-3.782c0-5.13.39-9.768,1.172-13.92.782-4.15,1.998-7.204,3.652-9.159.912-1.086,1.37-2.022,1.37-2.804,0-.739-.284-1.314-.847-1.728-.566-.412-1.24-.619-2.022-.619s-1.586.238-2.412.717c-3.305,2.217-4.956,7.977-4.956,17.276,0,5.26.349,10.324,1.045,15.191.13,1.045.38,1.837.749,2.381s.751.814,1.141.814ZM338.864,315.892c1.305,0,2.26-.217,2.869-.652.609-.433.912-.912.912-1.432s-.272-1.001-.814-1.435c-.544-.436-1.317-.652-2.316-.652-1.042,0-1.979.207-2.802.619-.828.414-1.24.881-1.24,1.403s.337,1.009,1.011,1.466,1.466.684,2.378.684Z" fill="#fff"/>
  </g>
</svg>