<svg xmlns="http://www.w3.org/2000/svg" viewBox="0 0 1200 630" width="1200" height="630">
  <defs>
    <linearGradient id="bg" x1="0%" y1="0%" x2="100%" y2="100%">
      <stop offset="0%" style="stop-color:#7C3AED"/>
      <stop offset="50%" style="stop-color:#A855F7"/>
      <stop offset="100%" style="stop-color:#EC4899"/>
    </linearGradient>
    <linearGradient id="card" x1="0%" y1="0%" x2="0%" y2="100%">
      <stop offset="0%" style="stop-color:#ffffff;stop-opacity:0.15"/>
      <stop offset="100%" style="stop-color:#ffffff;stop-opacity:0.05"/>
    </linearGradient>
  </defs>
  <rect width="1200" height="630" fill="url(#bg)"/>
  <circle cx="-50" cy="-50" r="300" fill="rgba(255,255,255,0.05)"/>
  <circle cx="1250" cy="680" r="350" fill="rgba(255,255,255,0.05)"/>
  <circle cx="1100" cy="50" r="200" fill="rgba(255,255,255,0.04)"/>
  <rect x="60" y="60" width="1080" height="510" rx="32" fill="url(#card)" stroke="rgba(255,255,255,0.3)" stroke-width="2"/>
  <text x="100" y="190" font-size="120" font-family="sans-serif">🎨</text>
  <text x="270" y="185" font-family="'Nunito', 'Arial Black', sans-serif" font-weight="900" font-size="66" fill="white" letter-spacing="-1">Páginas para Colorear</text>
  <text x="270" y="265" font-family="'Nunito', 'Arial Black', sans-serif" font-weight="900" font-size="66" fill="white" letter-spacing="-1">Gratis para Niños</text>
  <text x="270" y="330" font-family="'Nunito', Arial, sans-serif" font-weight="700" font-size="34" fill="rgba(255,255,255,0.85)">Imprimir &amp; Descargar — 100% Gratis</text>
  <line x1="270" y1="360" x2="1080" y2="360" stroke="rgba(255,255,255,0.25)" stroke-width="2"/>
  <rect x="270" y="385" width="175" height="52" rx="26" fill="rgba(255,255,255,0.2)"/>
  <text x="358" y="419" text-anchor="middle" font-family="sans-serif" font-size="24" fill="white">🐾 Animales</text>
  <rect x="460" y="385" width="195" height="52" rx="26" fill="rgba(255,255,255,0.2)"/>
  <text x="558" y="419" text-anchor="middle" font-family="sans-serif" font-size="24" fill="white">🚗 Vehículos</text>
  <rect x="670" y="385" width="210" height="52" rx="26" fill="rgba(255,255,255,0.2)"/>
  <text x="775" y="419" text-anchor="middle" font-family="sans-serif" font-size="24" fill="white">👑 Princesas</text>
  <rect x="895" y="385" width="195" height="52" rx="26" fill="rgba(255,255,255,0.2)"/>
  <text x="993" y="419" text-anchor="middle" font-family="sans-serif" font-size="24" fill="white">🌸 Estaciones</text>
  <text x="600" y="530" text-anchor="middle" font-family="'Nunito', Arial, sans-serif" font-weight="800" font-size="32" fill="rgba(255,255,255,0.7)" letter-spacing="1">kidslovecolor.com</text>
</svg>
