<svg xmlns="http://www.w3.org/2000/svg" viewBox="0 0 1200 630" width="1200" height="630">
  <defs>
    <linearGradient id="bg" x1="0%" y1="0%" x2="100%" y2="100%">
      <stop offset="0%" style="stop-color:#7C3AED"/>
      <stop offset="50%" style="stop-color:#A855F7"/>
      <stop offset="100%" style="stop-color:#EC4899"/>
    </linearGradient>
    <linearGradient id="card" x1="0%" y1="0%" x2="0%" y2="100%">
      <stop offset="0%" style="stop-color:#ffffff;stop-opacity:0.15"/>
      <stop offset="100%" style="stop-color:#ffffff;stop-opacity:0.05"/>
    </linearGradient>
  </defs>
  <rect width="1200" height="630" fill="url(#bg)"/>
  <circle cx="-50" cy="-50" r="300" fill="rgba(255,255,255,0.05)"/>
  <circle cx="1250" cy="680" r="350" fill="rgba(255,255,255,0.05)"/>
  <circle cx="1100" cy="50" r="200" fill="rgba(255,255,255,0.04)"/>
  <rect x="60" y="60" width="1080" height="510" rx="32" fill="url(#card)" stroke="rgba(255,255,255,0.3)" stroke-width="2"/>
  <text x="100" y="190" font-size="120" font-family="sans-serif">🎨</text>
  <text x="270" y="190" font-family="'Noto Sans SC', 'Microsoft YaHei', sans-serif" font-weight="900" font-size="80" fill="white">免费儿童涂色页</text>
  <text x="270" y="290" font-family="'Noto Sans SC', 'Microsoft YaHei', sans-serif" font-weight="700" font-size="38" fill="rgba(255,255,255,0.85)">打印和下载 — 100% 免费</text>
  <line x1="270" y1="335" x2="1080" y2="335" stroke="rgba(255,255,255,0.25)" stroke-width="2"/>
  <rect x="270" y="360" width="145" height="52" rx="26" fill="rgba(255,255,255,0.2)"/>
  <text x="343" y="394" text-anchor="middle" font-family="sans-serif" font-size="22" fill="white">🐾 动物</text>
  <rect x="430" y="360" width="185" height="52" rx="26" fill="rgba(255,255,255,0.2)"/>
  <text x="523" y="394" text-anchor="middle" font-family="sans-serif" font-size="22" fill="white">🚗 交通工具</text>
  <rect x="630" y="360" width="145" height="52" rx="26" fill="rgba(255,255,255,0.2)"/>
  <text x="703" y="394" text-anchor="middle" font-family="sans-serif" font-size="22" fill="white">👑 公主</text>
  <rect x="790" y="360" width="145" height="52" rx="26" fill="rgba(255,255,255,0.2)"/>
  <text x="863" y="394" text-anchor="middle" font-family="sans-serif" font-size="22" fill="white">🌸 四季</text>
  <rect x="950" y="360" width="120" height="52" rx="26" fill="rgba(255,255,255,0.2)"/>
  <text x="1010" y="394" text-anchor="middle" font-family="sans-serif" font-size="22" fill="white">🚀 太空</text>
  <text x="600" y="530" text-anchor="middle" font-family="'Noto Sans SC', Arial, sans-serif" font-weight="800" font-size="32" fill="rgba(255,255,255,0.7)" letter-spacing="1">kidslovecolor.com</text>
</svg>
